<?xml version="1.0" standalone="no"?>
<!DOCTYPE svg PUBLIC "-//W3C//DTD SVG 20010904//EN"
 "http://www.w3.org/TR/2001/REC-SVG-20010904/DTD/svg10.dtd">
<svg version="1.0" xmlns="http://www.w3.org/2000/svg"
 width="3840.000000pt" height="2160.000000pt" viewBox="0 0 3840.000000 2160.000000"
 preserveAspectRatio="xMidYMid meet">
<metadata>
Created by potrace 1.13, written by Peter Selinger 2001-2015
</metadata>
<g transform="translate(0.000000,2160.000000) scale(0.100000,-0.100000)"
fill="#000000" stroke="none">
<path d="M0 17164 l0 -4436 25 -20 c31 -25 31 -35 0 -50 l-25 -11 0 -5240 c0
-4979 1 -5240 18 -5253 16 -12 16 -13 0 -19 -17 -7 -18 -67 -18 -1071 l0
-1064 3480 0 c2753 0 3484 3 3500 12 16 10 24 10 40 0 16 -9 2710 -12 13119
-12 l13099 0 16 25 c21 32 53 32 68 0 l11 -25 2534 0 2533 0 0 5096 c0 4072
-3 5095 -12 5092 -12 -4 -49 -52 -62 -81 -4 -7 -8 -8 -11 -2 -25 49 -52 79
-100 110 -31 19 -64 50 -73 67 -25 47 -69 86 -100 90 -40 4 -33 18 18 37 34
12 52 28 75 62 17 26 57 66 89 90 32 24 67 56 76 71 l17 28 32 -40 c17 -22 36
-40 41 -40 6 0 10 1045 10 2836 0 1887 -3 2833 -10 2829 -5 -3 -10 -1 -10 4 0
6 5 11 10 11 7 0 10 897 10 2670 l0 2670 -6338 0 -6339 0 5 -30 c11 -74 -72
-111 -118 -53 -14 18 -20 37 -18 55 l5 28 -114 0 c-69 0 -113 -4 -113 -10 0
-5 -9 -10 -19 -10 -11 0 -23 5 -26 10 -4 7 -4237 10 -12666 10 l-12659 0 0
-4436z m13050 3141 c25 -31 21 -56 -13 -90 -19 -19 -44 -35 -55 -35 -26 0 -82
53 -82 78 0 25 36 71 64 82 20 7 66 -11 86 -35z m14522 -1672 c86 -90 39 -213
-82 -213 -34 0 -83 39 -100 80 -44 106 105 214 182 133z m10600 -11 c5 -5 11
-25 15 -45 11 -73 -75 -114 -134 -63 -25 22 -26 27 -18 62 7 25 19 43 35 52
26 13 86 10 102 -6z m-1191 -198 c36 -18 62 -73 53 -109 -18 -71 -132 -102
-188 -50 -19 17 -26 34 -26 60 0 47 14 71 53 95 39 24 68 25 108 4z m-24760
-103 c36 -36 37 -73 4 -106 -34 -35 -78 -33 -116 4 -36 36 -37 73 -4 106 34
35 78 33 116 -4z m409 -16 c39 -20 70 -62 70 -96 0 -34 -47 -91 -89 -109 -24
-9 -34 -9 -59 4 -34 17 -82 71 -82 91 0 50 64 125 107 125 13 0 37 -7 53 -15z
m5909 -291 c50 -42 40 -109 -19 -134 -39 -16 -85 1 -106 41 -12 25 -13 33 0
63 25 60 75 72 125 30z m10772 -244 c38 -20 59 -51 59 -90 0 -10 -23 -45 -51
-78 -47 -56 -53 -60 -75 -50 -13 6 -33 25 -44 42 -10 17 -27 41 -36 53 -21 29
-13 62 27 108 36 41 62 44 120 15z m4872 -626 c86 -45 145 -118 168 -211 10
-36 9 -47 -6 -69 -15 -24 -21 -26 -58 -20 -139 23 -272 207 -211 294 18 27 61
29 107 6z m-2290 -451 c21 -13 45 -39 54 -58 16 -33 15 -37 -3 -71 -21 -41
-87 -94 -116 -94 -24 0 -92 43 -112 72 -36 51 -7 124 67 168 33 20 56 17 110
-17z m-12160 -124 c29 -16 56 -50 57 -72 0 -24 -53 -77 -77 -77 -28 0 -77 37
-84 62 -7 28 16 73 45 87 28 13 34 13 59 0z m-11966 -161 c33 -31 30 -70 -8
-102 -37 -31 -45 -32 -86 -6 -27 16 -33 26 -33 53 0 69 77 102 127 55z m12906
-163 c35 -34 35 -69 -2 -106 -38 -38 -65 -37 -107 5 -41 41 -42 55 -8 95 33
40 78 42 117 6z m-2381 -442 c32 -29 50 -71 43 -104 -8 -36 -80 -99 -113 -99
-53 0 -132 93 -117 139 3 11 24 36 47 56 36 33 45 37 80 32 22 -3 49 -14 60
-24z m2794 -79 c56 -23 74 -42 74 -80 0 -18 5 -45 12 -60 11 -24 10 -29 -18
-53 -17 -14 -34 -34 -37 -43 -4 -10 -15 -18 -26 -18 -23 0 -71 -44 -71 -64 0
-25 -29 -39 -69 -32 -21 3 -41 3 -45 -1 -3 -4 -29 -8 -56 -10 -36 -2 -50 1
-50 10 0 8 -11 24 -24 36 -18 17 -23 32 -22 66 0 24 4 47 9 51 4 4 7 16 7 26
0 10 4 18 9 18 6 0 16 12 23 27 7 15 24 30 38 33 14 3 29 15 35 27 7 16 15 21
30 17 13 -3 27 1 34 10 8 9 21 16 30 16 9 0 30 9 46 20 36 24 25 23 71 4z
m9767 -533 c16 -10 42 -35 59 -56 29 -34 30 -39 19 -76 -8 -27 -26 -49 -58
-74 -53 -40 -69 -42 -123 -15 -46 24 -69 54 -77 104 -5 33 -2 40 44 86 56 56
88 63 136 31z m-4112 -152 c32 -34 35 -49 17 -82 -29 -55 -84 -63 -129 -18
-34 35 -37 68 -8 105 30 38 81 36 120 -5z m-25849 -256 c81 -40 140 -120 154
-209 12 -82 -53 -90 -158 -21 -66 45 -108 115 -108 182 0 65 41 82 112 48z
m33428 -928 c60 -31 77 -93 40 -145 -52 -74 -179 -32 -180 59 0 26 8 41 36 67
39 38 61 41 104 19z m-6550 -485 c6 -11 28 -31 50 -45 46 -29 74 -57 106 -107
13 -21 35 -40 49 -44 14 -3 25 -9 25 -12 0 -4 -38 -48 -129 -146 -14 -15 -36
-32 -49 -37 -12 -5 -32 -25 -43 -44 -12 -19 -24 -35 -29 -35 -4 0 -19 15 -33
34 -15 18 -47 47 -72 62 -30 19 -53 44 -66 72 -12 23 -30 47 -40 53 -27 14
-24 36 9 68 15 15 44 48 66 75 21 26 53 54 71 63 18 9 38 26 44 39 13 29 27
30 41 4z m-20787 -641 c12 -6 37 -25 55 -42 46 -44 45 -91 -3 -140 -43 -44
-73 -54 -111 -34 -100 52 -105 150 -12 207 38 23 42 24 71 9z m22705 -380 c36
-12 82 -68 82 -99 0 -54 -65 -120 -118 -120 -44 0 -112 67 -112 110 0 52 57
117 106 119 6 1 25 -4 42 -10z m-7419 -103 c28 -15 87 -75 116 -120 16 -24 16
-26 -20 -73 -20 -26 -56 -63 -81 -81 l-45 -33 -62 38 c-46 28 -68 51 -87 85
l-24 46 36 55 c25 37 50 61 80 76 51 25 51 25 87 7z m11992 -129 c27 -18 35
-30 37 -61 3 -31 -2 -44 -25 -68 -23 -25 -34 -29 -62 -24 -93 15 -112 125 -28
161 41 18 39 19 78 -8z m-21629 -562 c40 -16 68 -53 68 -89 0 -35 -48 -85 -87
-92 -29 -6 -38 -1 -73 34 -22 22 -40 46 -40 53 0 30 43 78 96 108 1 1 17 -6
36 -14z m-3915 -187 c27 -25 30 -64 7 -96 -12 -17 -25 -22 -59 -22 -34 0 -47
5 -59 22 -23 32 -20 65 9 93 30 31 71 32 102 3z m10308 -170 c50 -59 52 -74
18 -116 -17 -20 -43 -45 -60 -54 -27 -17 -31 -17 -64 0 -42 20 -67 50 -75 89
-4 21 2 39 25 71 29 40 34 42 80 42 43 0 53 -4 76 -32z m-443 -35 c25 -30 28
-52 11 -87 -24 -52 -79 -61 -118 -21 -29 29 -33 79 -8 107 22 24 94 25 115 1z
m2438 -24 c0 -14 -65 -111 -90 -134 -11 -10 -20 -26 -20 -35 0 -21 -92 -128
-139 -161 -18 -13 -45 -41 -58 -64 -42 -67 -93 -97 -93 -54 0 26 42 99 73 126
14 11 40 45 60 75 20 30 47 64 59 76 62 58 123 112 127 112 4 0 17 16 30 35
23 34 51 47 51 24z m-4279 -100 c45 -31 63 -74 49 -110 -16 -37 -75 -89 -101
-89 -58 0 -139 83 -125 126 8 24 46 68 72 82 30 18 73 14 105 -9z m-347 -551
c35 -50 1 -118 -59 -118 -37 0 -75 37 -75 73 0 59 101 93 134 45z m20605 -219
c26 -35 28 -44 19 -70 -7 -19 -24 -37 -50 -50 l-39 -20 -33 20 c-43 27 -59 62
-45 98 14 38 48 63 86 63 27 0 38 -7 62 -41z m-8788 -59 c26 -14 51 -67 44
-91 -9 -28 -56 -69 -80 -69 -24 1 -68 36 -84 68 -10 19 -9 27 9 52 34 48 70
61 111 40z m-26580 -161 c72 -51 -3 -151 -82 -108 -45 24 -39 87 10 114 34 19
38 18 72 -6z m28910 -80 c16 -17 29 -41 29 -54 0 -29 -53 -75 -85 -75 -27 0
-75 52 -75 80 0 10 12 32 26 49 34 40 67 40 105 0z m-13802 -185 c26 -33 27
-66 3 -87 -21 -20 -72 -31 -87 -20 -21 16 -46 64 -39 76 35 61 89 75 123 31z
m-15778 -17 c30 -23 47 -61 39 -83 -15 -38 -57 -63 -98 -59 -20 2 -40 4 -44 4
-14 2 -20 83 -8 106 21 40 79 57 111 32z m19396 -689 c11 -13 23 -36 26 -53 3
-16 8 -39 12 -50 9 -29 -35 -75 -73 -75 -50 0 -107 83 -72 105 6 3 10 19 10
35 0 18 8 34 22 44 31 22 51 20 75 -6z m2888 -983 c27 -26 29 -35 19 -85 -14
-69 -125 -75 -157 -8 -14 29 -14 35 4 69 21 42 30 47 77 48 22 1 41 -7 57 -24z
m-4211 -846 c14 -17 26 -39 26 -50 0 -29 -29 -68 -62 -85 -27 -14 -32 -14 -56
2 -37 24 -61 55 -62 78 0 11 11 34 26 53 21 27 32 33 64 33 30 0 43 -6 64 -31z
m2436 -441 c11 -12 20 -32 20 -45 0 -30 -42 -73 -71 -73 -32 0 -69 38 -69 72
0 61 78 91 120 46z m-5304 -32 c60 -51 20 -146 -62 -146 -76 0 -111 86 -57
142 34 36 81 37 119 4z m4308 -181 c-4 -14 -3 -16 4 -7 17 25 52 -32 45 -73
-5 -31 -3 -36 22 -45 15 -6 41 -20 56 -31 16 -11 29 -16 29 -10 0 6 5 11 12
11 14 0 78 -60 78 -72 0 -13 65 -78 79 -78 20 0 12 -54 -10 -68 -19 -12 -20
-15 -5 -37 23 -35 20 -45 -14 -45 -23 0 -33 -6 -42 -25 -6 -14 -19 -25 -28
-25 -9 0 -22 -6 -30 -12 -7 -7 -6 -2 3 12 24 34 21 50 -8 50 -14 0 -25 5 -25
10 0 6 -9 10 -19 10 -11 0 -31 14 -45 30 -22 27 -30 30 -61 24 -31 -6 -35 -4
-35 15 0 14 -9 25 -27 31 -60 22 -73 33 -73 62 0 17 -6 31 -16 35 -9 3 -24 25
-35 49 -15 35 -23 43 -41 41 -17 -1 -24 4 -26 19 -2 12 -16 36 -32 54 -30 34
-30 60 1 60 12 0 19 -7 19 -20 0 -27 41 -27 65 0 10 11 25 19 34 18 9 -2 20 6
25 17 7 16 18 20 57 20 44 0 48 -2 43 -20z m-9813 -124 c40 -40 39 -81 -2
-115 -47 -39 -101 -30 -132 23 -14 24 -14 31 -1 57 35 68 87 82 135 35z m7970
-1236 c19 -14 42 -40 51 -57 15 -28 16 -35 3 -66 -8 -19 -15 -36 -15 -38 0 -2
-20 -15 -45 -30 -39 -23 -49 -25 -73 -15 -39 17 -67 43 -86 79 -19 37 -14 52
41 113 42 47 74 50 124 14z m10931 -325 c64 -53 57 -124 -15 -169 -46 -28 -57
-27 -104 14 -50 42 -60 75 -36 113 50 78 96 90 155 42z m-15800 -1572 c33 -44
17 -97 -35 -117 -31 -12 -53 -6 -84 22 -31 27 -29 65 5 100 23 24 33 28 62 23
19 -3 42 -16 52 -28z m8289 -98 c18 -10 49 -59 49 -79 0 -6 -14 -26 -31 -46
-40 -45 -78 -47 -120 -6 -37 38 -38 76 -2 113 28 30 68 36 104 18z m-7368
-401 c74 -38 89 -100 38 -157 -34 -36 -67 -41 -111 -15 -29 17 -50 51 -50 81
0 24 35 73 62 88 29 16 34 17 61 3z m-7763 -1138 c94 -65 152 -191 114 -248
-14 -22 -21 -24 -53 -19 -94 15 -193 105 -217 197 -20 77 -2 109 60 109 31 0
54 -10 96 -39z"/>
</g>
</svg>
